<?xml version="1.0" encoding="UTF-8" standalone="no"?><!DOCTYPE svg PUBLIC "-//W3C//DTD SVG 1.1//EN" "http://www.w3.org/Graphics/SVG/1.1/DTD/svg11.dtd"><svg width="100%" height="100%" viewBox="0 0 1920 1080" version="1.1" xmlns="http://www.w3.org/2000/svg" xmlns:xlink="http://www.w3.org/1999/xlink" xml:space="preserve" xmlns:serif="http://www.serif.com/" style="fill-rule:evenodd;clip-rule:evenodd;stroke-linejoin:round;stroke-miterlimit:2;"><rect x="-21.907" y="-24.993" width="1952.15" height="1120.17" style="fill:#111;"/><g transform="matrix(1.66909,0,0,1.66909,644.68,-416.782)"><text x="403.54px" y="630.643px" style="font-family:'Consolas', monospace;font-size:30.257px;fill:#fff;">repeat</text><text x="503.352px" y="630.643px" style="font-family:'Consolas', monospace;font-size:30.257px;fill:#ec373a;">()</text><text x="536.623px" y="630.643px" style="font-family:'Consolas', monospace;font-size:30.257px;fill:#fff;">;</text></g><g transform="matrix(1.66909,0,0,1.66909,353.646,-416.631)"><text x="403.54px" y="630.643px" style="font-family:'Consolas', monospace;font-size:30.257px;fill:#fff;">code</text><text x="470.082px" y="630.643px" style="font-family:'Consolas', monospace;font-size:30.257px;fill:#748ddf;">()</text><text x="503.352px" y="630.643px" style="font-family:'Consolas', monospace;font-size:30.257px;fill:#fff;">;</text></g><g transform="matrix(1.66909,0,0,1.66909,-272.507,-416.036)"><text x="403.54px" y="630.643px" style="font-family:'Consolas', monospace;font-size:30.257px;fill:#fff;">eat</text><text x="453.446px" y="630.643px" style="font-family:'Consolas', monospace;font-size:30.257px;fill:#dfd574;">()</text><text x="486.717px" y="630.643px" style="font-family:'Consolas', monospace;font-size:30.257px;fill:#fff;">;</text></g><g transform="matrix(1.66909,0,0,1.66909,16.1481,-414.254)"><text x="403.54px" y="630.643px" style="font-family:'Consolas', monospace;font-size:30.257px;fill:#fff;">sleep</text><text x="486.717px" y="630.643px" style="font-family:'Consolas', monospace;font-size:30.257px;fill:#67f571;">()</text><text x="519.988px" y="630.643px" style="font-family:'Consolas', monospace;font-size:30.257px;fill:#fff;">;</text></g><path d="M1492.8,497.522l-36.77,-0.896l-2.242,-1.196l-0.299,-3.288l1.644,-4.335l9.417,-8.669l-5.2,-3.489l-6.187,-3.395c-0,-0 -2.774,-0.574 -4.018,-0.766c-1.244,-0.191 -7.653,-1.052 -7.653,-1.052l-5.261,-0l-6.314,1.052l-3.635,1.531l-4.305,2.296l-3.635,2.87l-3.061,2.2l-2.965,3.826l-2.583,2.87l-1.914,3.922l-1.434,4.401l-1.148,3.156l-0.192,2.009l-0.095,4.209l-0.192,3.54l-0.191,3.061l0.191,4.496l1.34,4.305l1.53,4.018l2.009,3.539l4.783,5.453l2.679,1.148c-0,-0 2.869,2.2 4.4,2.965c1.531,0.765 3.731,1.339 4.783,2.009c1.052,0.67 6.409,2.2 6.409,2.2l5.07,0.479l5.549,0.287l2.87,-0.574l3.922,-0.67l3.922,-1.722l3.731,-2.296l3.348,-2.104l2.678,-2.201l2.2,-1.913l1.722,-1.626l1.627,-0.957l1.339,-0.095l2.296,-0l2.296,0.095l2.295,1.435l1.818,2.009l0.765,1.531l1.435,2.2l0.765,1.817l0,2.583l-0.956,2.583l-4.284,4.589l-5.605,4.204l-5.138,3.27l-8.875,3.736l-4.671,1.869l-10.51,0.7l-8.174,-0.233l-10.042,-1.635l-12.845,-4.905l-7.941,-6.772l-7.24,-7.24l-5.839,-10.51l-3.503,-8.641l-2.335,-14.013l0.7,-8.174l3.036,-10.043l3.036,-6.539l4.204,-7.707l7.24,-7.941l7.24,-4.437l7.007,-5.372l13.779,-3.97l12.144,-0.934l10.043,0.233l8.174,2.569l7.941,4.438l6.539,4.67l2.346,1.499l9.207,-9.289l0.862,-0.509l1.724,-0.353l1.92,0l1.763,0.745l0.823,0.352l0.352,2.038l0.649,36.513l-0.076,0.765l-0.153,0.919l-0.46,0.535l-1.621,0.722Z" style="fill:#292929;"/><path d="M1056.74,503.212l30.917,-32.509l2.205,-0.49l1.897,0.122l2.266,0.674l1.04,2.204l0.613,2.816l0.122,3.857l-25.285,25.775l23.845,24.871l1.339,2.487l-0.287,2.87l-0.67,2.391l-2.2,2.487c0,0 -1.53,0.766 -2.774,0.383c-1.244,-0.383 -3.157,-2.296 -3.157,-2.296l-30.42,-30.898l-0.383,-1.435l0.096,-1.435l0.287,-1.244l0.549,-0.63Z" style="fill:#292929;"/><path d="M1184.87,503.212l-30.918,-32.509l-2.204,-0.49l-1.898,0.122l-2.265,0.674l-1.041,2.204l-0.612,2.816l-0.123,3.857l25.286,25.775l-23.845,24.871l-1.34,2.487l0.287,2.87l0.67,2.391l2.2,2.487c0,0 1.531,0.766 2.774,0.383c1.244,-0.383 3.157,-2.296 3.157,-2.296l30.421,-30.898l0.382,-1.435l-0.095,-1.435l-0.287,-1.244l-0.549,-0.63Z" style="fill:#292929;"/><path d="M1103.01,551.071l25.231,-90.759l0.956,-2.272l0.957,-1.554l3.109,-0l2.511,0.478l1.316,0.837l1.315,2.392l-25.948,92.432l-0.12,1.196l-2.272,0.598l-3.348,-0.359l-2.511,-1.196l-1.196,-1.793Z" style="fill:#292929;"/><path d="M873.699,510.552l-82.651,0l0.383,-28.889l0.287,-1.339l2.87,-1.435l2.774,-0.192l49.935,-0.574l3.061,0.574l2.966,0.192l2.295,1.435l2.775,2.008l4.304,2.488l4.975,3.73l1.945,2.555l1.285,2.02l1.776,2.816l1.041,1.776l-0,2.694l-0.021,10.141Z" style="fill:#292929;"/><path d="M502.422,524.18l-17.633,0.294l0.54,-68.225l1.165,-2.51l1.898,-2.082l3.122,-3.306l2.021,-1.469l2.51,-1.776l2.939,-1.285l3.428,-1.286l1.163,-0.306l24.306,-0.613l2.327,0l1.224,-0.183l0.088,118.13l-1.058,7.68l-2.939,2.195l-2.429,0.979c-0,0 -2.116,-0.039 -2.508,0c-0.392,0.039 -12.355,0.001 -12.355,0.001l-2.678,-0.229l-3.291,-3.521l-1.377,-3.826l-0.463,-38.662Z" style="fill:#292929;"/><path d="M745.632,534.295l0.096,17.41l-19.228,0.096l-0.096,-87.53l1.531,-1.435l0.765,-1.148l3.061,-0.766l3.444,-0.287l3.54,0.096l4.878,0.096l1.148,0.765l0.479,1.818l0.382,50.796l123.422,1.08l2.525,0.383l0.918,0.918l0.766,1.684l0.612,33.749l-19.132,-0.153l0.076,-17.755l-109.187,0.183Z" style="fill:#292929;"/><ellipse cx="768.427" cy="493.777" rx="18.31" ry="18.3" style="fill:#292929;"/><path d="M438.823,506.397l-4.107,-2.374l-2.508,-2.432l-2.676,-5.181l-0.078,-51.604l1.528,-2.272l1.214,-1.215l1.137,-0.392l2.155,-0.313l1.841,0.431l1.842,1.724l0.627,1.293l-0.044,33.994l0,1.653l1.102,0.796l1.776,0.49l1.959,-0.306l1.837,-1.163l0.734,-0.858l0.735,-1.653l0.306,-33.244l0.612,-1.347l1.96,-1.836l1.163,-0.123l2.326,0l1.776,0.98l0.918,2.204l0.735,3.061l-0.306,29.51l0.796,2.265c-0,-0 0.306,1.285 0.796,1.653c0.489,0.367 2.632,0.796 2.632,0.796l1.959,-0.245l0.98,-0.612l0.857,-0.613l0.551,-1.53l0.306,-32.265l0.551,-2.143l1.592,-1.836l1.592,-0.551l2.02,-0.062l1.531,0.306l1.53,1.715l1.102,1.836l0.245,50.571l-0.673,1.53l-0.429,1.409l-1.469,1.775l-2.082,2.02l-2.755,2.511l-1.898,0.857l-0.608,57.304l-0.455,3.707l-1.136,1.097l-1.764,1.764l-1.41,1.606l-2.586,0.392l-3.84,0.549l-3.801,-0.196l-1.685,-0.079l-3.095,-0.352l-2.351,-0.862l-2.116,-1.45l-1.176,-1.803l-1.606,-2.194l-0.118,-1.802l-0.551,-56.891Z" style="fill:#292929;"/></svg>